<svg version="1.1" viewBox="0 0 650 650"><path fill="#059669" d="M321.765 141.729c15.302-2.413 33.5 7.639 41.272 25.18 4.622 10.433 8.885 21.227 13.165 31.908l24.773 62.302 42.843 106.053c6.032 15 14.892 35.276 19.322 51.273.567 2.05-.486 10.69-1.396 13.36-5.92 17.37-14.839 39.343-22.538 55.23-5.926 12.225-18.045 19.073-28.732 21.225-11.206 1.994-28.433-4.294-35.669-15.395-7.077-10.856-14.596-32.455-19.72-45.472l-24.578-62.426-36.478-91.774c-7.363-18.472-14.766-36.918-21.958-55.497-2.558-6.607-4.738-14.643-1.706-21.864 13.688-32.607 18.644-68.773 51.4-74.103m139.643.039c10.591-1.07 28.41 6.264 34.927 16.594 8.982 14.235 18.584 41.208 25.314 57.95l36.856 91.66 34.336 85.245c6.838 16.894 16.943 40.613 22.766 57.852 1.662 4.855 2.568 10.084 2.667 15.39.068 4.278-.37 7.754-1.336 11.768-7.717 32.113-31.838 28.16-52.186 28.128-13.24.097-31.09 2.626-42.209-8.166-9.939-9.647-15.55-28.516-21.255-42.848l-21.718-54.146a15601 15601 0 0 1-50.16-124.246c-6.435-16.112-13.052-32.11-19.344-48.306-2.29-5.897-4.1-13.57-1.444-19.838 14.022-33.084 19.4-63.584 52.786-67.037m-278.687-.016c10.607-.558 18.9 2.317 27.98 9.433 7.124 5.58 10.37 11.225 14.23 20.641 8.102 19.764 15.828 39.756 23.564 59.755l34.291 87.692 23.365 58.809c3.597 9.064 11.492 27.413 13.618 36.933 2.995 13.41-12.94 42.493-17.012 55.087-1.763 5.453-6.203 14.923-8.823 19.104-3.186 5.059-7.119 9.247-11.57 12.32-10.46 7.379-22.782 8.999-34.179 4.495-14.467-5.692-19.556-15.45-26.25-32.046-13.388-33.18-25.976-67.331-39.694-100.243l-4.077 9.484-27.858 69.868c-9.942 24.92-17.987 55.505-43.946 53.41-17.945-1.446-49.04 5.575-63.434-8.616-6.218-6.245-10.202-15.49-11.034-25.609-1.462-17.079 6.65-32.608 12.572-47.276l15.345-38.07 48.355-119.624 25.6-63.251c12.357-30.878 18.545-58.49 48.957-62.296" style="stroke-width:1.13671"/></svg>