<svg xmlns="http://www.w3.org/2000/svg" version="1.1" viewBox="0 0 650 650"><defs><linearGradient id="a" x1="380.391" x2="633.311" y1="677.864" y2="350.61" gradientUnits="userSpaceOnUse"><stop offset="0" stop-color="#3C7CAB"/><stop offset="1" stop-color="#3FC0D6"/></linearGradient></defs><path fill="#3db8d2" d="M425.022 132.935c8.095 6.578 17.415 15.673 25.113 22.904l50.518 48.299L625 321.099c-4.32 4.69-11.611 11.183-16.36 15.838l-31.464 31.045a9450 9450 0 0 0-103.361 100.66c-14.038 13.211-33.264 33.574-47.808 45.29-.617-30.34.57-62.03-.56-92.215 35.245-32.811 69.785-66.569 105.193-99.249l-77.91-73.153c-7.263-6.908-21.74-19.24-27.645-25.992-.316-12.36-.062-25.802-.09-38.255a2960 2960 0 0 1 .027-52.133"/><path fill="#438ab5" d="m221.686 133.992.415.426c.775 4.655.63 27.086.56 33.165-.215 18.98.556 38.82.165 57.679-8.476 8.241-19.161 17.377-28.056 25.608a10129 10129 0 0 0-76.8 71.822c5.077 5.282 12.211 11.694 17.695 16.92l33.264 31.624c16.922 15.968 36.472 35.364 53.852 50.418l-.006 92.322c-15.38-14.08-30.964-29.927-45.975-44.588L25 322.542c5.663-5.568 12.598-11.48 18.537-17.043a5694 5694 0 0 0 41.494-39.583 16256 16256 0 0 1 136.655-131.924"/><path fill="url(#a)" d="m520.83 311.493 64.822-.003c-3.917 14.808-7.78 34.866-11.179 50.199l-20.437 91.76-58.603 261.044-5.643.003-64.747.188 65.289-272.951c10.101-42.569 21.696-87.528 30.498-130.24" style="fill:url(#a)" transform="translate(-171.962 -171.97)scale(.96859)"/><path fill="#438ab5" d="M222.236 248.819c.945 1.185.522 133.965.54 149.985-12.872-12.717-27.702-26.647-40.863-39.163-13.172-12.396-25.803-24.559-39.382-36.671 26.885-24.152 52.57-50.14 79.705-74.151"/></svg>