<svg xmlns="http://www.w3.org/2000/svg" version="1.1" viewBox="0 0 10.583 10.583"><path d="m36.91 79.762-.738.01.007.552c-1.526.18-2.002 1.12-2.002 3.628 0 2.576.497 3.537 2.097 3.715l.007.561.738-.01-.006-.52c.762-.01 1.231-.133 1.99-.507V83.73h-2.041l-.034-2.602c.829.017 1.116.25 1.208.95h.878c-.114-1.344-.602-1.768-2.097-1.787zm-.72 1.432.073 5.604c-.893-.214-1.175-.99-1.175-2.835 0-1.8.264-2.556 1.103-2.769m.782 3.372h1.185v2.032c-.398.189-.675.256-1.155.264z" style="font-size:10.5833px;line-height:1.25;font-family:&quot;Berkeley Mono Trial&quot;;-inkscape-font-specification:&quot;Berkeley Mono Trial, Normal&quot;;letter-spacing:0;word-spacing:0;fill:#059669;fill-opacity:1;stroke-width:.264583" transform="translate(-31.304 -78.703)"/></svg>